<?xml version="1.0" encoding="UTF-8" standalone="no"?>
<svg
   xmlns:dc="http://purl.org/dc/elements/1.1/"
   xmlns:cc="http://creativecommons.org/ns#"
   xmlns:rdf="http://www.w3.org/1999/02/22-rdf-syntax-ns#"
   xmlns:svg="http://www.w3.org/2000/svg"
   xmlns="http://www.w3.org/2000/svg"
   version="1.1"
   id="svg2"
   viewBox="0 0 1123.389 595.44401"
   height="168.04753mm"
   width="317.04535mm">
  <defs
     id="defs4" />
  <metadata
     id="metadata7">
    <rdf:RDF>
      <cc:Work
         rdf:about="">
        <dc:format>image/svg+xml</dc:format>
        <dc:type
           rdf:resource="http://purl.org/dc/dcmitype/StillImage" />
        <dc:title></dc:title>
      </cc:Work>
    </rdf:RDF>
  </metadata>
  <g
     transform="translate(-11.558926,-662.37357)"
     id="layer1">
    <path
       d="m 122.39102,738.32635 c 17.66617,7.54794 37.95105,5.46036 56.65421,5.02906 41.05525,-1.75478 82.13066,-2.94723 123.19568,-4.43818 12.62025,-0.50707 12.89298,-0.67848 24.44394,-0.61706 4.29939,0.0229 11.52719,-0.68817 15.31379,2.43288 0.90756,0.74804 1.4061,1.88568 2.10915,2.82852 0.34753,1.45791 0.91216,2.88065 1.04259,4.37372 0.58947,6.74799 -0.1986,13.54839 -0.0737,20.32093 0.34341,18.62646 2.0349,37.13799 3.69028,55.68096 3.66574,48.81127 5.20166,97.78052 6.9034,146.69785 0.99312,24.94625 1.42127,50.64627 -6.9146,74.58377 -4.6466,13.3433 -6.84139,15.0173 -14.52609,26.1833 -17.52803,15.7189 -39.04359,34.4086 -63.7292,31.4255 -9.70067,-1.1723 -17.72303,-6.0214 -25.86062,-10.9607 -10.47641,-7.5742 -17.88379,-17.4339 -21.58811,-29.7597 -2.24497,-10.5788 -2.01584,-22.5147 5.22479,-31.3659 2.36935,-2.8964 5.50842,-5.0664 8.26263,-7.5996 15.09988,-8.6608 29.90222,-17.8623 45.29963,-25.98228 4.15567,-2.19154 8.77653,-3.36187 13.22257,-4.88017 15.15812,-5.17644 30.64973,-9.13141 46.34362,-12.25949 10.37351,-2.45362 20.92862,-1.78109 31.41261,-0.816 5.86419,0.26842 11.65172,1.37462 17.45071,2.23314 0,0 -34.17768,24.0208 -34.17768,24.0208 l 0,0 c -5.71773,-0.9665 -11.46158,-1.8376 -17.27194,-1.9706 -9.87491,-0.7005 -19.72645,-1.5887 -29.51,0.8195 -15.2159,2.9594 -30.29618,6.5872 -44.8555,12.0033 -4.44643,1.6541 -16.69122,8.5956 -13.15421,5.4339 6.46374,-5.7779 14.80825,-9.0206 22.21237,-13.5309 -2.73017,2.0492 -5.78519,3.7253 -8.19051,6.1476 -7.44844,7.5009 -7.57982,18.2424 -5.76248,27.8713 2.96145,11.4853 9.37365,20.6486 19.06588,27.6526 7.55805,4.5055 15.07547,8.8892 24.17533,9.2758 3.22455,0.137 11.87413,-3.2017 9.64324,-0.8694 -3.7638,3.9349 -41.89255,27.5636 -13.92241,8.5447 8.33611,-10.675 10.65364,-12.141 15.83452,-25.2614 9.29519,-23.5398 9.01528,-49.3766 8.69389,-74.22515 -0.50162,-48.79866 -1.63983,-97.64012 -7.33508,-146.16266 -2.6933,-25.35271 -5.14355,-50.74608 -7.86045,-76.08766 -1.72203,-2.19168 -4.427,-2.41843 -7.11813,-2.75464 -9.69986,-1.21183 -19.53868,-0.89397 -29.28119,-0.9501 -40.9577,0.37946 -81.88462,1.8743 -122.77949,4.18398 -20.41876,0.89671 -41.58755,3.49407 -61.249988,-3.52704 0,0 34.966588,-23.72448 34.966588,-23.72448 z"
       id="path4182"
       style="opacity:1;fill:#ff0000;fill-opacity:1;stroke:none;stroke-width:10;stroke-linecap:round;stroke-linejoin:round;stroke-miterlimit:4;stroke-dasharray:none;stroke-opacity:1" />
    <path
       d="m 438.59949,1018.3746 c 12.41885,-4.0136 33.40127,-15.2574 -23.59028,14.5123 -2.72689,1.4244 5.12032,-3.4181 7.57657,-5.2706 6.875,-5.185 11.75309,-9.6411 18.2904,-15.3276 12.26633,-10.8636 24.56114,-22.01164 31.83252,-36.91373 4.2655,-11.99158 -3.9179,-15.59366 -13.77849,-19.29086 -5.60004,-1.71941 -11.42713,-2.6954 -17.28372,-1.83975 -1.52803,0.22324 -3.062,0.55276 -4.49043,1.13955 -1.32017,0.54231 -4.91587,2.90112 -3.66648,2.21122 10.74406,-5.93277 21.43525,-11.96076 32.15287,-17.94115 -7.51372,6.70977 -12.07517,15.85516 -16.26091,24.85187 -4.89881,11.07148 -6.3415,23.03718 -7.40839,34.96815 -0.9508,10.6763 -0.51922,21.4128 4.40054,31.0755 6.6025,7.8198 17.65186,7.5375 27.05063,8.3346 12.61096,0.7944 25.25843,0.8202 37.88379,0.4163 0,0 -33.90882,24.6403 -33.90882,24.6403 l 0,0 c -12.36638,-0.4069 -24.73858,-0.703 -37.09206,-1.4244 -11.1317,-0.9586 -23.37349,-1.2038 -30.25696,-11.3595 -5.1389,-11.2696 -5.61248,-21.1372 -4.55396,-33.4451 0.76874,-12.1715 1.67513,-24.45364 6.10093,-35.9509 4.21008,-9.38062 8.8646,-18.63732 15.39893,-26.64668 29.85769,-17.85446 36.79108,-31.16365 66.09924,-21.90976 11.64781,4.97628 20.9273,10.79813 17.29422,25.01037 -7.23988,15.98173 -19.96075,27.78848 -33.00386,39.20899 -21.20177,19.13718 -44.11761,39.38188 -72.56763,46.52828 0,0 33.78135,-25.5774 33.78135,-25.5774 z"
       id="path4184"
       style="opacity:1;fill:#008000;fill-opacity:1;stroke:none;stroke-width:10;stroke-linecap:round;stroke-linejoin:round;stroke-miterlimit:4;stroke-dasharray:none;stroke-opacity:1" />
    <path
       d="m 594.98708,941.46287 c -8.67074,-4.42784 -18.58831,-5.87303 -28.21871,-6.12971 -1.80066,0.32643 -3.66139,0.4142 -5.40197,0.97928 -1.85649,0.6027 -3.53186,1.6629 -5.29779,2.49435 9.88403,-5.5014 19.51739,-11.47954 29.65209,-16.50421 2.25429,-1.11765 -4.02326,3.03397 -5.88863,4.72257 -4.02959,3.64773 -6.80821,7.11271 -10.33914,11.20196 -6.28017,7.39088 -10.88733,15.6717 -13.01258,25.12046 -1.55339,11.74282 7.53255,18.65888 16.4544,24.25435 12.35888,6.339 26.22788,8.5325 38.49379,15.06378 5.74453,3.6357 8.90629,8.7628 10.23505,15.267 0.2933,2.3133 0.46743,4.8345 -0.45778,7.0539 -0.61736,1.4809 -2.30327,3.944 -3.68867,4.7905 -12.86491,7.8609 -25.99746,15.2751 -38.99619,22.9127 -8.75231,3.1123 -17.76007,5.0354 -26.94265,6.3412 -5.64615,0.4691 -10.97989,2.5013 -16.58399,3.3265 -2.26817,0.2598 -4.55157,0.3019 -6.83099,0.3621 0,0 34.00733,-24.9877 34.00733,-24.9877 l 0,0 c 2.20285,-0.1798 4.40981,-0.3543 6.57709,-0.8145 5.37718,-1.1254 10.71279,-2.477 16.20907,-2.9107 8.97441,-1.44 17.9202,-3.4591 26.08994,-7.5868 -10.81042,6.4112 -21.62084,12.8225 -32.43126,19.2337 1.59287,-1.2429 4.26076,-2.5336 5.23411,-4.4185 0.69467,-1.3453 0.48062,-2.0741 0.43615,-3.5278 -0.52315,-5.381 -2.87954,-9.3987 -7.58002,-12.3467 -12.11206,-6.6102 -25.97029,-8.8839 -38.00605,-15.7111 -10.66345,-6.7311 -20.05561,-14.30341 -19.80755,-28.02129 1.60505,-10.36787 6.43528,-19.39301 13.07753,-27.49471 17.43974,-20.96731 39.54807,-40.90106 68.34136,-42.88019 10.20841,0.8785 20.31057,2.80732 29.8557,6.64118 0,0 -35.17964,23.56838 -35.17964,23.56838 z"
       id="path4186"
       style="opacity:1;fill:#0000ff;fill-opacity:1;stroke:none;stroke-width:10;stroke-linecap:round;stroke-linejoin:round;stroke-miterlimit:4;stroke-dasharray:none;stroke-opacity:1" />
    <path
       d="m 690.22483,801.46309 c -0.22139,15.95136 -2.18128,31.71705 -4.56641,47.46488 -6.78711,35.01492 -8.85781,70.6154 -10.19863,106.17967 -0.25818,13.7412 -0.40301,17.33047 -0.38169,30.41717 0.0151,9.26066 -0.56531,18.52829 3.41853,27.06559 0.74968,0.6932 1.34857,1.5983 2.24903,2.0798 5.23211,2.7976 15.04531,-0.9731 20.04926,-2.6264 10.99778,-3.8672 21.70871,-8.3006 33.02299,-11.2004 10.94023,-2.50735 22.1339,-3.56152 33.29979,-4.45806 0.89986,-0.0631 1.79971,-0.12626 2.69956,-0.18939 0,0 -33.95991,24.94755 -33.95991,24.94755 l 0,0 c -0.8184,0.028 -1.63679,0.055 -2.45519,0.082 -10.81599,0.5624 -21.62592,1.7904 -32.10769,4.6237 -11.2368,3.3771 -22.0234,7.9502 -33.21644,11.4542 -9.24322,2.5132 -19.53648,4.7019 -25.88526,-4.3599 -4.03379,-10.5366 -2.57201,-18.6951 -1.9104,-29.8281 0.27483,-4.62465 1.59329,-27.79702 1.78666,-31.18735 1.90065,-35.11008 3.06641,-70.36114 7.47286,-105.2624 2.21118,-15.26172 4.83954,-30.57349 3.09043,-46.04852 0,0 37.59251,-19.15434 37.59251,-19.15434 z"
       id="path4188"
       style="opacity:1;fill:#ff00ff;fill-opacity:1;stroke:none;stroke-width:10;stroke-linecap:round;stroke-linejoin:round;stroke-miterlimit:4;stroke-dasharray:none;stroke-opacity:1" />
    <path
       d="m 652.13576,915.66763 c 12.62025,-1.02291 35.08045,-3.50358 47.64012,-5.11083 10.69276,-1.29078 21.44672,-1.92939 32.19405,-2.55331 l -33.49974,24.56764 0,0 c -10.46938,0.31689 -20.93217,0.9778 -31.31997,2.36779 -12.952,1.85353 -29.83661,4.13659 -42.78701,6.00577 z"
       id="path4190"
       style="opacity:1;fill:#ff00ff;fill-opacity:1;stroke:none;stroke-width:10;stroke-linecap:round;stroke-linejoin:round;stroke-miterlimit:4;stroke-dasharray:none;stroke-opacity:1" />
    <path
       d="m 928.49706,892.1625 c 4.63937,9.85866 6.15862,20.66566 7.50822,31.36234 26.52859,34.10003 -37.41403,83.10396 -36.45662,64.51829 0.89682,-4.62426 1.27554,-7.84348 1.92705,-12.54295 1.51,-9.61407 1.73407,-29.41416 3.55471,-38.97465 2.56408,-9.17367 10.09355,-15.75796 16.44049,-22.47256 6.66972,-7.05372 13.18514,-14.3602 21.58647,-19.36669 18.69838,-7.62414 36.73486,-25.74666 54.15793,-12.43817 4.56659,3.52003 9.19199,6.89749 14.20989,9.74387 5.442,2.46993 9.9397,6.65865 14.6339,10.29004 l -37.27411,17.90391 0,0 c -4.76503,-3.62084 -9.62565,-6.98081 -15.04588,-9.56101 -4.92848,-3.11857 -9.66565,-6.49582 -14.42613,-9.86185 -1.96879,-1.08234 -3.85899,-2.03907 -6.1644,-2.11415 -2.74097,-0.0893 -4.88763,0.92076 -4.57712,0.78534 11.64324,-5.07783 23.38114,-9.93573 35.07171,-14.9036 -9.19476,3.73542 -15.8412,10.95592 -22.5347,18.08072 -3.49863,3.79476 -7.04274,7.51331 -10.4114,11.4231 -0.34465,0.4 -4.37023,4.96791 -4.79783,5.6653 -0.58971,0.96181 -0.90108,2.06868 -1.35162,3.10302 -2.43204,9.42861 -2.83591,19.29541 -4.43494,28.88107 -0.5697,4.88057 -0.93735,7.52688 -1.28285,12.35683 -0.0971,1.35821 1.03589,13.47945 -0.1858,14.08081 -45.90095,22.59389 -41.13077,28.87419 -39.56595,10.24738 0.83055,-13.36596 0.92117,-36.80485 -1.01056,-50.09346 -1.70622,-9.9906 -3.08982,-20.50859 -8.47829,-29.30933 z"
       id="path4194"
       style="opacity:1;fill:#008080;fill-opacity:1;stroke:none;stroke-width:10;stroke-linecap:round;stroke-linejoin:round;stroke-miterlimit:4;stroke-dasharray:none;stroke-opacity:1" />
    <path
       d="m 261.45664,1156.3746 c 9.49118,-1.3663 19.09681,-1.8297 28.57763,-3.256 29.87801,-4.4949 59.51997,-10.4407 89.24998,-15.8283 110.25995,-19.9808 25.4357,-5.0688 146.00185,-25.8913 77.11275,-12.5229 154.21017,-25.1452 231.41475,-37.0936 44.05457,-6.818 68.47301,-10.7426 111.88256,-15.8969 15.59048,-1.8511 31.22683,-3.2932 46.84025,-4.9398 33.26481,-3.4026 66.63046,-5.7476 100.03194,-7.2623 14.6782,-0.6657 29.0942,-0.7392 43.6276,-2.8911 0,0 -32.3299,23.995 -32.3299,23.995 l 0,0 c -13.4239,0.6983 -26.75841,0.041 -40.20053,0.033 -31.76112,-0.019 -63.51677,1.2699 -95.16809,3.9513 -15.19951,1.3673 -30.4157,2.5603 -45.59854,4.1017 -112.81271,11.453 -224.91799,29.327 -336.67972,48.2084 -27.01517,5.1504 -54.06638,10.1153 -81.04552,15.4512 -67.02364,13.256 -133.52152,28.9257 -200.38562,42.896 0,0 33.78136,-25.5774 33.78136,-25.5774 z"
       id="path4198"
       style="opacity:1;fill:#000000;fill-opacity:1;stroke:#000000;stroke-width:10;stroke-linecap:round;stroke-linejoin:round;stroke-miterlimit:4;stroke-dasharray:none;stroke-opacity:1" />
    <path
       d="m 803.39319,965.05461 c 12.41885,-4.0136 33.40127,-15.2574 -23.59028,14.5123 -2.72689,1.4244 5.12032,-3.4181 7.57657,-5.2706 6.875,-5.185 11.75309,-9.6411 18.2904,-15.3276 12.26633,-10.8636 24.56114,-22.01164 31.83252,-36.91373 4.2655,-11.99158 -3.9179,-15.59366 -13.77849,-19.29086 -5.60004,-1.71941 -11.42713,-2.6954 -17.28372,-1.83975 -1.52803,0.22324 -3.062,0.55276 -4.49043,1.13955 -1.32017,0.54231 -4.91587,2.90112 -3.66648,2.21122 10.74406,-5.93277 21.43525,-11.96076 32.15287,-17.94115 -7.51372,6.70977 -12.07517,15.85516 -16.26091,24.85187 -4.89881,11.07148 -6.3415,23.03718 -7.40839,34.96815 -0.9508,10.6763 -0.51922,21.4128 4.40054,31.0755 6.6025,7.8198 17.65186,7.5375 27.05063,8.3346 12.61096,0.7944 25.25843,0.8202 37.88378,0.4163 0,0 -33.90881,24.64029 -33.90881,24.64029 l 0,0 c -12.36638,-0.4069 -24.73858,-0.703 -37.09206,-1.4244 -11.1317,-0.9586 -23.37349,-1.2038 -30.25696,-11.35949 -5.1389,-11.2696 -5.61248,-21.1372 -4.55396,-33.4451 0.76874,-12.1715 1.67513,-24.45364 6.10093,-35.9509 4.21008,-9.38062 8.8646,-18.63732 15.39893,-26.64668 29.85769,-17.85446 36.79108,-31.16365 66.09924,-21.90976 11.6478,4.97628 20.92729,10.79813 17.29421,25.01037 -7.23988,15.98173 -19.96074,27.78848 -33.00385,39.20899 -21.20177,19.13718 -44.11761,39.38188 -72.56763,46.52828 0,0 33.78135,-25.5774 33.78135,-25.5774 z"
       id="path4184-4"
       style="opacity:1;fill:#88aa00;fill-opacity:1;stroke:none;stroke-width:10;stroke-linecap:round;stroke-linejoin:round;stroke-miterlimit:4;stroke-dasharray:none;stroke-opacity:1" />
  </g>
</svg>
